<svg width="16" height="18" viewBox="0 0 16 18" fill="none" xmlns="http://www.w3.org/2000/svg">
<g clip-path="url(#clip0_20_158)">
<path d="M7.87705 4.95708C5.62953 4.95708 3.81667 6.76059 3.81667 8.99653C3.81667 11.2325 5.62953 13.036 7.87705 13.036C10.1246 13.036 11.9374 11.2325 11.9374 8.99653C11.9374 6.76059 10.1246 4.95708 7.87705 4.95708ZM7.87705 11.6227C6.42464 11.6227 5.23727 10.445 5.23727 8.99653C5.23727 7.54809 6.42111 6.37036 7.87705 6.37036C9.33298 6.37036 10.5168 7.54809 10.5168 8.99653C10.5168 10.445 9.32945 11.6227 7.87705 11.6227ZM13.0506 4.79184C13.0506 5.31567 12.6265 5.73403 12.1035 5.73403C11.577 5.73403 11.1564 5.31216 11.1564 4.79184C11.1564 4.27153 11.5805 3.84966 12.1035 3.84966C12.6265 3.84966 13.0506 4.27153 13.0506 4.79184ZM15.7398 5.74809C15.6797 4.48598 15.39 3.36802 14.4606 2.44692C13.5347 1.52583 12.411 1.23755 11.1423 1.17427C9.83479 1.10044 5.91577 1.10044 4.60825 1.17427C3.34314 1.23403 2.21938 1.52231 1.28998 2.44341C0.360585 3.3645 0.0743449 4.48247 0.010736 5.74458C-0.0634745 7.04536 -0.0634745 10.9442 0.010736 12.245C0.0708111 13.5071 0.360585 14.625 1.28998 15.5461C2.21938 16.4672 3.33961 16.7555 4.60825 16.8188C5.91577 16.8926 9.83479 16.8926 11.1423 16.8188C12.411 16.759 13.5347 16.4707 14.4606 15.5461C15.3864 14.625 15.6762 13.5071 15.7398 12.245C15.814 10.9442 15.814 7.04887 15.7398 5.74809ZM14.0507 13.6407C13.775 14.3297 13.2414 14.8606 12.5452 15.1383C11.5028 15.5497 9.02908 15.4547 7.87705 15.4547C6.72502 15.4547 4.2478 15.5461 3.20885 15.1383C2.51622 14.8641 1.98261 14.3332 1.70344 13.6407C1.28998 12.6036 1.3854 10.1426 1.3854 8.99653C1.3854 7.85044 1.29352 5.38598 1.70344 4.35239C1.97908 3.66333 2.51269 3.13247 3.20885 2.85474C4.25133 2.44341 6.72502 2.53833 7.87705 2.53833C9.02908 2.53833 11.5063 2.44692 12.5452 2.85474C13.2379 3.12895 13.7715 3.65981 14.0507 4.35239C14.4641 5.3895 14.3687 7.85044 14.3687 8.99653C14.3687 10.1426 14.4641 12.6071 14.0507 13.6407Z" fill="white"/>
</g>
<defs>
<clipPath id="clip0_20_158">
<rect width="16" height="18" fill="white"/>
</clipPath>
</defs>
</svg>
